<svg width="208" height="78" viewBox="0 0 208 78" fill="none" xmlns="http://www.w3.org/2000/svg">
<path d="M0.375 77.1932L10.3466 17.3636H18.8409L14.5795 42.9034C14.2197 45.0625 14.3807 46.9659 15.0625 48.6136C15.7443 50.2424 16.8523 51.5208 18.3864 52.4489C19.9205 53.3769 21.8144 53.8409 24.0682 53.8409C26.322 53.8409 28.3674 53.3769 30.2045 52.4489C32.0606 51.5208 33.5852 50.2424 34.7784 48.6136C35.9905 46.9659 36.767 45.0625 37.108 42.9034L41.3977 17.3636H49.892L42.6193 61H34.267L35.375 54.608H35.0341C33.5758 56.7481 31.7576 58.3958 29.5795 59.5511C27.4015 60.7064 25.1288 61.2841 22.7614 61.2841C20.4697 61.2841 18.4242 60.7064 16.625 59.5511C14.8447 58.3958 13.5947 56.7481 12.875 54.608H12.5341L8.72727 77.1932H0.375ZM92.2216 28.017L84.2955 29.3807C84.125 28.3769 83.7746 27.4299 83.2443 26.5398C82.733 25.6496 81.947 24.9299 80.8864 24.3807C79.8258 23.8125 78.4148 23.5284 76.6534 23.5284C74.2102 23.5284 72.0701 24.0871 70.233 25.2045C68.4148 26.322 67.3731 27.7424 67.108 29.4659C66.8617 30.8674 67.1932 32.0038 68.1023 32.875C69.0114 33.7273 70.6117 34.4375 72.9034 35.0057L79.608 36.5966C83.4716 37.5246 86.2367 38.9735 87.9034 40.9432C89.589 42.8939 90.1761 45.4318 89.6648 48.5568C89.2292 51.1515 88.0928 53.4527 86.2557 55.4602C84.4375 57.4678 82.108 59.0398 79.267 60.1761C76.4261 61.3125 73.2633 61.8807 69.7784 61.8807C64.8163 61.8807 60.9527 60.8295 58.1875 58.7273C55.4223 56.625 54.0019 53.6515 53.9261 49.8068L62.3352 48.5568C62.4867 50.697 63.2538 52.3163 64.6364 53.4148C66.0379 54.4943 67.9792 55.0341 70.4602 55.0341C73.3011 55.053 75.678 54.4564 77.5909 53.2443C79.5038 52.0322 80.5928 50.5644 80.858 48.8409C81.0852 47.4962 80.7822 46.3788 79.9489 45.4886C79.1345 44.5985 77.6951 43.9167 75.6307 43.4432L68.5852 41.8239C64.6458 40.8958 61.8617 39.3996 60.233 37.3352C58.6042 35.2708 58.0549 32.6761 58.5852 29.5511C59.0019 26.9943 60.0814 24.7689 61.8239 22.875C63.5852 20.9621 65.8106 19.4754 68.5 18.4148C71.1894 17.3352 74.1629 16.7955 77.4205 16.7955C82.1742 16.7955 85.7443 17.8182 88.1307 19.8636C90.517 21.8902 91.8807 24.608 92.2216 28.017ZM104.348 60.84C102.108 60.84 100.401 60.28 99.2281 59.16C98.1081 58.04 97.5481 56.6 97.5481 54.84C97.5481 53.1867 98.0015 51.6933 98.9081 50.36C99.8148 48.9733 100.988 47.88 102.428 47.08C103.921 46.2267 105.441 45.8 106.988 45.8C107.628 45.8 108.268 45.88 108.908 46.04C109.548 46.1467 110.161 46.36 110.748 46.68V9.4H116.908V47.08C116.908 49.96 116.295 52.44 115.068 54.52C113.895 56.5467 112.348 58.12 110.428 59.24C108.508 60.3067 106.481 60.84 104.348 60.84ZM120.588 48.84C121.441 46.9733 122.055 45.16 122.428 43.4C122.855 41.64 123.068 39.88 123.068 38.12C123.068 35.9333 122.748 34.0667 122.108 32.52C121.521 30.9733 120.695 29.7467 119.628 28.84C118.561 27.9333 117.361 27.32 116.028 27V12.12C116.615 13.6133 117.361 14.9733 118.268 16.2C119.175 17.3733 120.161 18.4933 121.228 19.56C122.401 20.84 123.521 22.2 124.588 23.64C125.655 25.08 126.535 26.76 127.228 28.68C127.921 30.6 128.268 32.92 128.268 35.64C128.268 38.1467 127.921 40.4933 127.228 42.68C126.535 44.8667 125.521 46.92 124.188 48.84H120.588ZM161.036 17.3636L159.928 24.1818H135.268L136.376 17.3636H161.036ZM135.865 61L143.99 12.3068C144.407 9.57954 145.363 7.31629 146.859 5.51705C148.356 3.69886 150.164 2.3447 152.286 1.45455C154.407 0.545452 156.623 0.0909052 158.933 0.0909052C160.638 0.0909052 162.068 0.232952 163.223 0.517045C164.397 0.782195 165.25 1.02841 165.78 1.25568L162.683 8.13068C162.304 8.01704 161.821 7.88447 161.234 7.73295C160.647 7.5625 159.909 7.47727 159.018 7.47727C156.954 7.47727 155.392 7.98863 154.331 9.01136C153.289 10.0341 152.589 11.5114 152.229 13.4432L144.359 61H135.865ZM165.226 77.3636C163.938 77.3636 162.792 77.2595 161.788 77.0511C160.785 76.8617 160.036 76.6534 159.544 76.4261L162.783 69.4659C164.279 69.8826 165.614 70.0436 166.788 69.9489C167.982 69.8542 169.099 69.3617 170.141 68.4716C171.182 67.5814 172.243 66.1799 173.322 64.267L174.913 61.3977L166.362 17.3636H175.112L180.51 51.3125H180.964L197.669 17.3636H207.129L180.964 66.767C179.733 69.1155 178.332 71.0663 176.76 72.6193C175.207 74.1913 173.464 75.375 171.533 76.1705C169.62 76.9659 167.518 77.3636 165.226 77.3636Z" fill="white"/>
</svg>
